<svg width="24" height="24" viewBox="0 0 24 24" fill="none" xmlns="http://www.w3.org/2000/svg">
  <path d="M12 22C17.5228 22 22 17.5228 22 12C22 6.47715 17.5228 2 12 2C6.47715 2 2 6.47715 2 12C2 17.5228 6.47715 22 12 22Z" stroke="currentColor" stroke-width="1.5" />
  <path d="M12 11C14.2091 11 16 9.20914 16 7C16 4.79086 14.2091 3 12 3C9.79086 3 8 4.79086 8 7C8 9.20914 9.79086 11 12 11Z" stroke="currentColor" stroke-width="1.5" stroke-linecap="round" />
  <path d="M6 19.5C6 17 10 16 12 16C14 16 18 17 18 19.5" stroke="currentColor" stroke-width="1.5" stroke-linecap="round" />
  <path d="M16 12L18 14L22 10" stroke="#F8D576" stroke-width="2" stroke-linecap="round" stroke-linejoin="round" />
</svg>
